<svg width="97" height="96" viewBox="0 0 97 96" fill="none" xmlns="http://www.w3.org/2000/svg">
<g id="brush" clip-path="url(#clip0_241_2154)">
<path id="Vector" d="M28.5 64C30.7 64 32.5 65.8 32.5 68C32.5 72.4 28.9 76 24.5 76C23.82 76 23.18 75.92 22.5 75.8C23.74 73.6 24.5 70.96 24.5 68C24.5 65.8 26.3 64 28.5 64ZM75.18 12C74.14 12 73.14 12.4 72.34 13.16L36.5 49L47.5 60L83.34 24.16C84.9 22.6 84.9 20.08 83.34 18.52L77.98 13.16C77.18 12.36 76.18 12 75.18 12ZM28.5 56C21.86 56 16.5 61.36 16.5 68C16.5 73.24 11.86 76 8.5 76C12.18 80.88 18.46 84 24.5 84C33.34 84 40.5 76.84 40.5 68C40.5 61.36 35.14 56 28.5 56Z" fill="url(#paint0_angular_241_2154)"/>
</g>
<defs>
<radialGradient id="paint0_angular_241_2154" cx="0" cy="0" r="1" gradientUnits="userSpaceOnUse" gradientTransform="translate(48.5 30) rotate(92.1747) scale(59.2927 62.595)">
<stop stop-color="#E22066"/>
<stop offset="0.125" stop-color="#FF9900"/>
<stop offset="0.328125" stop-color="white"/>
</radialGradient>
<clipPath id="clip0_241_2154">
<rect width="96" height="96" fill="white" transform="translate(0.5)"/>
</clipPath>
</defs>
</svg>
